<?xml version="1.0" encoding="iso-8859-1"?>
<!-- Generator: Adobe Illustrator 16.0.0, SVG Export Plug-In . SVG Version: 6.00 Build 0)  -->
<!DOCTYPE svg PUBLIC "-//W3C//DTD SVG 1.1//EN" "http://www.w3.org/Graphics/SVG/1.1/DTD/svg11.dtd">
<svg version="1.1" id="Capa_1" xmlns="http://www.w3.org/2000/svg" xmlns:xlink="http://www.w3.org/1999/xlink" x="0px" y="0px"
	 width="514.485px" height="514.485px" viewBox="0 0 514.485 514.485" style="enable-background:new 0 0 514.485 514.485;"
	 xml:space="preserve">
<g>
	<g>
		<path d="M367.078,417.33c4.055-0.401,6.972-4.016,6.445-8.052c-5.881-46.043-42.257-297.01-147.683-407.572
			c-2.812-2.955-5.278-1.96-5.422,2.123l-14.258,422.309c-0.144,4.073,3.032,7.038,7.086,6.636L367.078,417.33z"/>
		<path d="M419.701,473.893c-111.289,21.248-273.679-0.469-322.41-7.87c-7.937-1.205-11.695,5.671-6.273,13.388
			c24.595,35.047,76.825,35.075,76.825,35.075s50.576,0,127.038,0c55.51,0,103.733-23.008,125.985-35.592
			C428.202,474.734,427.6,472.382,419.701,473.893z"/>
	</g>
</g>
<g>
</g>
<g>
</g>
<g>
</g>
<g>
</g>
<g>
</g>
<g>
</g>
<g>
</g>
<g>
</g>
<g>
</g>
<g>
</g>
<g>
</g>
<g>
</g>
<g>
</g>
<g>
</g>
<g>
</g>
</svg>
